<svg viewBox="0 0 24 24" fill="none" xmlns="http://www.w3.org/2000/svg">
<path d="M12.0394 4C13.1659 4 14.2894 4.30956 15.2793 4.93644C16.1943 5.51547 16.952 6.32649 17.4813 7.29311L17.4858 7.29622H17.4873L17.8008 7.22311C18.1143 7.15622 18.4307 7.11578 18.7502 7.11578C20.3357 7.11578 21.9226 7.85778 22.9831 9.34178C23.6437 10.2738 24 11.4003 24 12.5571C24 13.7139 23.6437 14.8404 22.9831 15.7724C22.4967 16.4633 21.8597 17.0253 21.1241 17.4124C20.3885 17.7995 19.5751 18.0008 18.7502 18H4.52166C2.98571 18 1.45126 17.188 0.564784 15.5656C0.194541 14.8851 0 14.117 0 13.3357C0 12.5543 0.194541 11.7862 0.564784 11.1058C1.45126 9.48178 2.98571 8.66978 4.52166 8.66978C5.17414 8.66978 5.82212 8.82533 6.42211 9.12555C6.52617 9.17786 6.61722 9.25432 6.68819 9.349C6.75917 9.44369 6.80816 9.55405 6.83137 9.67154C6.85458 9.78903 6.85138 9.91048 6.82203 10.0265C6.79267 10.1425 6.73795 10.2499 6.6621 10.3404L6.15211 10.9409C6.05243 11.0587 5.92076 11.1425 5.77436 11.1814C5.62795 11.2202 5.47363 11.2123 5.33164 11.1587C5.07665 11.056 4.80216 11.0031 4.52166 11.0031C4.29367 11.0031 4.05968 11.0373 3.82569 11.1104C3.42831 11.2467 3.07528 11.4948 2.80601 11.827C2.53675 12.1593 2.36185 12.5627 2.30085 12.9921C2.23986 13.4215 2.29517 13.86 2.4606 14.2587C2.62604 14.6574 2.89509 15.0005 3.2377 15.2498C3.62469 15.5344 4.09718 15.6682 4.57266 15.6682H18.7427C20.0957 15.6682 21.3092 14.7396 21.6451 13.38C21.7661 12.9183 21.7828 12.4339 21.6942 11.9644C21.6055 11.4949 21.4137 11.0529 21.1338 10.6726C20.8539 10.2923 20.4932 9.98403 20.0799 9.77158C19.6665 9.55914 19.2116 9.44826 18.7502 9.44755C18.5867 9.44755 18.4292 9.47089 18.2732 9.49733C17.5533 9.61867 16.9248 10.0044 16.4733 10.5582C16.454 10.5831 16.4295 10.6031 16.4018 10.6168C16.374 10.6306 16.3436 10.6376 16.3128 10.6376C16.2597 10.6388 16.2082 10.6186 16.1693 10.5811C16.1303 10.5436 16.107 10.4919 16.1043 10.4369C16.062 9.69829 15.8401 8.98281 15.4593 8.35711C15.1646 7.83888 14.7655 7.39266 14.2894 7.04889C13.6333 6.60172 12.8635 6.36774 12.0784 6.37689C11.6329 6.37689 11.186 6.44689 10.76 6.58378C9.842 6.87622 9.21652 7.37555 8.77553 7.97289C8.66116 8.12609 8.49549 8.22917 8.31133 8.26172C8.12716 8.29428 7.93791 8.25393 7.78106 8.14867C7.59027 8.01927 7.39245 7.90137 7.18858 7.79555C7.09158 7.74503 7.00638 7.67314 6.93896 7.58491C6.87153 7.49668 6.82349 7.39425 6.79821 7.28477C6.77292 7.17529 6.771 7.0614 6.79257 6.95107C6.81414 6.84074 6.85869 6.73662 6.92309 6.646C7.46956 5.88446 8.17119 5.25721 8.97803 4.80889C9.91734 4.27833 10.9698 4.00023 12.0394 4Z" fill="currentColor"/>
</svg>
