<svg viewBox="0 0 80 80" fill="none" xmlns="http://www.w3.org/2000/svg">
<path d="M47.2011 54.4983C47.3644 54.252 47.5748 54.0405 47.8203 53.8758C48.0657 53.7112 48.3412 53.5967 48.6311 53.539C48.9209 53.4812 49.2193 53.4814 49.5091 53.5395C49.7989 53.5976 50.0743 53.7124 50.3195 53.8773L52.1914 55.1238C52.6884 55.4538 53.034 55.9678 53.1521 56.5525C53.2703 57.1373 53.1513 57.7451 52.8214 58.2422L46.3056 67.9979C45.9749 68.4941 45.4606 68.8388 44.8759 68.9561C44.2911 69.0733 43.6838 68.9537 43.1872 68.6233L41.3153 67.3769C41.0689 67.2131 40.8573 67.0023 40.6925 66.7567C40.5277 66.511 40.413 66.2352 40.3549 65.9452C40.2968 65.6551 40.2965 65.3564 40.3539 65.0662C40.4114 64.776 40.5255 64.5 40.6898 64.254L47.2011 54.4983ZM33.7015 49.9985C33.8648 49.7522 34.0753 49.5406 34.3207 49.376C34.5661 49.2113 34.8417 49.0968 35.1315 49.0391C35.4213 48.9814 35.7197 48.9816 36.0095 49.0397C36.2993 49.0977 36.5747 49.2125 36.8199 49.3775L38.6918 50.624C39.1888 50.954 39.5344 51.4679 39.6525 52.0527C39.7707 52.6375 39.6517 53.2453 39.3218 53.7423L32.806 63.498C32.4753 63.9943 31.961 64.3389 31.3763 64.4562C30.7915 64.5735 30.1842 64.4538 29.6876 64.1235L27.8157 62.877C27.5693 62.7132 27.3577 62.5025 27.1929 62.2568C27.0281 62.0111 26.9134 61.7354 26.8553 61.4453C26.7972 61.1552 26.7969 60.8566 26.8543 60.5664C26.9118 60.2762 27.0259 60.0002 27.1902 59.7541L33.7015 49.9985ZM40.1183 5C43.4977 5 46.8681 5.89547 49.838 7.70891C52.5828 9.38389 54.8561 11.73 56.4438 14.5262L56.4573 14.5352H56.4618L57.4023 14.3237C58.3428 14.1302 59.2922 14.0132 60.2507 14.0132C65.007 14.0132 69.7679 16.1596 72.9493 20.4525C74.9312 23.1487 76 26.4074 76 29.7537C76 33.0999 74.9312 36.3586 72.9493 39.0548C71.49 41.0535 69.5791 42.6789 67.3723 43.7987C65.1655 44.9185 62.7253 45.501 60.2507 45.4986H17.565C12.9571 45.4986 8.35377 43.1497 5.69435 38.4564C4.58362 36.4879 4 34.266 4 32.0058C4 29.7456 4.58362 27.5237 5.69435 25.5553C8.35377 20.8575 12.9571 18.5085 17.565 18.5085C19.5224 18.5085 21.4664 18.9585 23.2663 19.827C23.5785 19.9783 23.8517 20.1995 24.0646 20.4734C24.2775 20.7473 24.4245 21.0665 24.4941 21.4064C24.5637 21.7463 24.5541 22.0976 24.4661 22.4332C24.378 22.7687 24.2138 23.0795 23.9863 23.3414L22.4563 25.0783C22.1573 25.4191 21.7623 25.6616 21.3231 25.774C20.8838 25.8864 20.4209 25.8635 19.9949 25.7083C19.2299 25.4113 18.4065 25.2583 17.565 25.2583C16.881 25.2583 16.179 25.3573 15.4771 25.5688C14.2849 25.9629 13.2258 26.6806 12.418 27.6417C11.6102 28.6029 11.0855 29.7697 10.9026 31.0119C10.7196 32.254 10.8855 33.5226 11.3818 34.6759C11.8781 35.8292 12.6853 36.8218 13.7131 37.5429C14.8741 38.3664 16.2915 38.7534 17.718 38.7534H60.2282C64.2871 38.7534 67.9275 36.0669 68.9354 32.1341C69.2982 30.7985 69.3485 29.3973 69.0825 28.0391C68.8164 26.681 68.2412 25.4023 67.4014 24.3023C66.5616 23.2022 65.4797 22.3104 64.2396 21.6958C62.9996 21.0813 61.6347 20.7605 60.2507 20.7585C59.7602 20.7585 59.2877 20.826 58.8197 20.9025C56.6598 21.2535 54.7744 22.3694 53.4199 23.9714C53.3619 24.0432 53.2886 24.1011 53.2053 24.1409C53.1219 24.1806 53.0307 24.2011 52.9384 24.2008C52.7791 24.2046 52.6246 24.146 52.5078 24.0376C52.391 23.9292 52.3211 23.7795 52.3129 23.6204C52.186 21.4838 51.5204 19.4141 50.378 17.6041C49.4937 16.1049 48.2965 14.8141 46.8681 13.8197C44.8999 12.5262 42.5904 11.8493 40.2353 11.8758C38.8988 11.8758 37.5579 12.0783 36.2799 12.4742C33.526 13.3202 31.6496 14.7647 30.3266 16.4926C29.9835 16.9358 29.4865 17.234 28.934 17.3281C28.3815 17.4223 27.8137 17.3056 27.3432 17.0011C26.7708 16.6268 26.1773 16.2857 25.5657 15.9796C25.2747 15.8335 25.0192 15.6255 24.8169 15.3703C24.6146 15.1151 24.4705 14.8188 24.3946 14.502C24.3188 14.1853 24.313 13.8559 24.3777 13.5367C24.4424 13.2176 24.5761 12.9164 24.7693 12.6542C26.4087 10.4513 28.5136 8.63679 30.9341 7.33992C33.752 5.80513 36.9095 5.00068 40.1183 5Z" fill="currentColor"/>
</svg>
